#!OML:ASF I:\Actors\actors\Patient Classification 2\Patient 1\Session 1\actor1.ASF
:FULLY-SPECIFIED
:DEGREES
152
root -1.17736 18.7042 5.70378 1.13107 3.33178 -3.56591
lowerback 5.83092 1.87482 1.81001
upperback -1.82042 2.6643 0.374979
thorax -5.09394 1.2675 -0.894794
lowerneck -8.66334 -5.46076 -3.52018
upperneck 17.6393 -8.02243 5.841
head 7.20611 -3.58978 1.75184
rclavicle 6.91087e-016 7.55382e-015
rhumerus -16.9382 27.3388 -65.1845
rradius 106.833
rwrist -58.9279
rhand 11.3457 -50.5359
rfingers 7.12502
rthumb 36.4016 -76.7527
lclavicle 6.91087e-016 7.55382e-015
lhumerus -43.2639 0.692787 88.3526
lradius 41.4319
lwrist -6.68186
lhand -9.29944 -25.3436
lfingers 7.12502
lthumb 16.6582 3.96157
rfemur 0 0 0
rtibia 0
rfoot 0 0
rtoes 0
lfemur -6.86877 -7.41117 -8.66645
ltibia 22.7624
lfoot -19.997 11.1456
ltoes -57.1669
153
root -1.20131 18.7065 5.70546 1.19691 3.43212 -3.4387
lowerback 5.81563 1.90474 1.51592
upperback -1.82345 2.68083 0.371952
thorax -5.10095 1.28492 -0.734777
lowerneck -8.60506 -5.49955 -3.5479
upperneck 17.3845 -8.07077 5.91644
head 7.12009 -3.61443 1.77897
rclavicle -1.29427e-014 -6.16232e-015
rhumerus -17.2925 26.9849 -65.0417
rradius 107.881
rwrist -58.9587
rhand 12.5787 -51.4742
rfingers 7.12502
rthumb 37.5678 -77.3897
lclavicle -1.29427e-014 -6.16232e-015
lhumerus -43.2712 0.613837 88.3665
lradius 41.4741
lwrist -6.54785
lhand -9.26503 -25.2149
lfingers 7.12502
lthumb 16.6913 4.08754
rfemur 0 0 0
rtibia 0
rfoot 0 0
rtoes 0
lfemur -6.94067 -7.36736 -8.70583
ltibia 22.6517
lfoot -19.8477 11.0977
ltoes -57.2984
154
root -1.21665 18.7073 5.70551 1.24789 3.55304 -3.47112
lowerback 5.83586 1.91696 1.50886
upperback -1.84457 2.69786 0.381961
thorax -5.13498 1.29328 -0.723437
lowerneck -8.54198 -5.56593 -3.59838
upperneck 17.1826 -8.15922 6.00434
head 7.05416 -3.65794 1.80979
rclavicle 3.18646e-014 1.09332e-014
rhumerus -15.9507 27.8136 -63.5808
rradius 108.474
rwrist -60.3015
rhand 11.3315 -51.1539
rfingers 7.12502
rthumb 36.3881 -77.3741
lclavicle 3.18646e-014 1.09332e-014
lhumerus -43.3065 0.580381 88.3653
lradius 41.5266
lwrist -6.50962
lhand -9.21053 -25.1317
lfingers 7.12502
lthumb 16.7438 4.16622
rfemur 0 0 0
rtibia 0
rfoot 0 0
rtoes 0
lfemur -6.99363 -7.42977 -8.60797
ltibia 22.542
lfoot -19.7463 11.1903
ltoes -57.5346
155
root -1.23305 18.7081 5.70421 1.29531 3.67442 -3.48632
lowerback 5.88616 1.92101 1.48129
upperback -1.86098 2.70227 0.380227
thorax -5.18181 1.2957 -0.712615
lowerneck -8.47887 -5.62309 -3.63608
upperneck 16.9388 -8.24116 6.13055
head 6.9758 -3.69532 1.85173
rclavicle 3.32033e-015 -4.77083e-015
rhumerus -15.1426 28.1761 -62.558
rradius 109.274
rwrist -61.3045
rhand 10.8687 -51.1187
rfingers 7.12502
rthumb 35.9498 -77.4475
lclavicle 3.32033e-015 -4.77083e-015
lhumerus -43.2762 0.667163 88.3009
lradius 41.4801
lwrist -6.63661
lhand -9.20139 -25.1733
lfingers 7.12502
lthumb 16.7526 4.12391
rfemur 0 0 0
rtibia 0
rfoot 0 0
rtoes 0
lfemur -7.0799 -7.50261 -8.52824
ltibia 22.5065
lfoot -19.66 11.2569
ltoes -57.64
156
root -1.25085 18.7089 5.70182 1.31734 3.78886 -3.52143
lowerback 5.95088 1.91199 1.44322
upperback -1.84902 2.68928 0.400017
thorax -5.20906 1.29054 -0.671801
lowerneck -8.23148 -5.6244 -3.71291
upperneck 16.4207 -8.24924 6.3886
head 6.78057 -3.69879 1.95597
rclavicle 1.30732e-014 -3.97569e-015
rhumerus -14.8834 28.1888 -62.0184
rradius 110.214
rwrist -61.8368
rhand 10.8646 -51.0106
rfingers 7.12502
rthumb 35.946 -77.3403
lclavicle 1.30732e-014 -3.97569e-015
lhumerus -43.2107 0.780434 88.2302
lradius 41.4511
lwrist -6.73809
lhand -9.19416 -25.2498
lfingers 7.12502
lthumb 16.7595 4.0468
rfemur 0 0 0
rtibia 0
rfoot 0 0
rtoes 0
lfemur -7.15124 -7.49852 -8.41588
ltibia 22.507
lfoot -19.5636 11.1645
ltoes -57.575
157
root -1.26673 18.7102 5.69832 1.34751 3.88089 -3.62009
lowerback 6.00572 1.91267 1.50395
upperback -1.84831 2.69737 0.424226
thorax -5.2378 1.29263 -0.683592
lowerneck -7.81123 -5.59504 -3.86388
upperneck 15.7515 -8.21941 6.78052
head 6.51463 -3.68577 2.12352
rclavicle -7.35503e-015 9.14409e-015
rhumerus -15.2607 27.8464 -62.0261
rradius 111.292
rwrist -61.7315
rhand 10.7498 -50.5598
rfingers 7.12502
rthumb 35.8371 -76.9162
lclavicle -7.35503e-015 9.14409e-015
lhumerus -43.2131 0.779126 88.188
lradius 41.5168
lwrist -6.74983
lhand -9.21396 -25.3268
lfingers 7.12502
lthumb 16.7405 3.97146
rfemur 0 0 0
rtibia 0
rfoot 0 0
rtoes 0
lfemur -7.22277 -7.49632 -8.2391
ltibia 22.4984
lfoot -19.5018 11.1284
ltoes -57.5943
158
root -1.28067 18.7105 5.69561 1.33602 3.95705 -3.64782
lowerback 6.1136 1.91795 1.53316
upperback -1.84654 2.70834 0.412566
thorax -5.2952 1.29617 -0.717276
lowerneck -7.51498 -5.57672 -3.87815
upperneck 15.2471 -8.19665 6.97468
head 6.31042 -3.6782 2.20044
rclavicle -4.66212e-015 5.56597e-015
rhumerus -15.1605 27.7593 -61.6526
rradius 111.988
rwrist -61.8571
rhand 10.6498 -49.907
rfingers 7.12502
rthumb 35.7424 -76.2864
lclavicle -4.66212e-015 5.56597e-015
lhumerus -43.2455 0.708138 88.1492
lradius 41.6004
lwrist -6.70706
lhand -9.24597 -25.3573
lfingers 7.12502
lthumb 16.7097 3.94353
rfemur 0 0 0
rtibia 0
rfoot 0 0
rtoes 0
lfemur -7.23674 -7.52568 -8.15757
ltibia 22.4818
lfoot -19.4729 11.1364
ltoes -57.6665
159
root -1.2944 18.7096 5.69397 1.28454 4.00817 -3.5585
lowerback 6.27058 1.9104 1.41018
upperback -1.82218 2.68951 0.38838
thorax -5.36373 1.28968 -0.677212
lowerneck -7.39297 -5.56096 -3.68142
upperneck 14.9012 -8.16391 6.87614
head 6.1659 -3.66879 2.14577
rclavicle -1.49151e-014 4.37326e-015
rhumerus -14.6107 27.9394 -60.9067
rradius 112.872
rwrist -62.3267
rhand 10.6652 -49.9628
rfingers 7.12502
rthumb 35.757 -76.3387
lclavicle -1.49151e-014 4.37326e-015
lhumerus -43.2341 0.693744 88.0994
lradius 41.6553
lwrist -6.66518
lhand -9.22326 -25.3468
lfingers 7.12502
lthumb 16.7315 3.9522
rfemur 0 0 0
rtibia 0
rfoot 0 0
rtoes 0
lfemur -7.1792 -7.65609 -8.22443
ltibia 22.4569
lfoot -19.4791 11.1782
ltoes -57.6346
160
root -1.30869 18.7087 5.69054 1.24169 4.04549 -3.53723
lowerback 6.3671 1.89668 1.37951
upperback -1.76029 2.66738 0.34945
thorax -5.3537 1.2793 -0.700381
lowerneck -7.28468 -5.54691 -3.44932
upperneck 14.547 -8.14343 6.8167
head 6.0226 -3.66062 2.09665
rclavicle 3.52719e-014 -9.54166e-015
rhumerus -13.8366 28.1877 -60.0132
rradius 113.931
rwrist -63.1018
rhand 10.456 -50.2247
rfingers 7.12502
rthumb 35.5587 -76.6484
lclavicle 3.52719e-014 -9.54166e-015
lhumerus -43.1592 0.630401 88.0024
lradius 41.6993
lwrist -6.65461
lhand -9.24769 -25.4244
lfingers 7.12502
lthumb 16.708 3.87654
rfemur 0 0 0
rtibia 0
rfoot 0 0
rtoes 0
lfemur -7.13149 -7.86481 -8.2155
ltibia 22.4252
lfoot -19.5073 11.2919
ltoes -57.5804
161
root -1.32322 18.708 5.68532 1.18743 4.10478 -3.59788
lowerback 6.49524 1.87852 1.41069
upperback -1.71325 2.64641 0.330878
thorax -5.37544 1.2674 -0.738663
lowerneck -7.10328 -5.55104 -3.28133
upperneck 14.1986 -8.15584 6.8558
head 5.87757 -3.66674 2.0883
rclavicle -3.75517e-014 -2.38542e-015
rhumerus -13.2636 28.2862 -59.2261
rradius 114.966
rwrist -63.9333
rhand 10.5548 -50.0478
rfingers 7.12502
rthumb 35.6523 -76.449
lclavicle -3.75517e-014 -2.38542e-015
lhumerus -43.1433 0.503502 87.912
lradius 41.7787
lwrist -6.61025
lhand -9.31706 -25.4939
lfingers 7.12502
lthumb 16.6412 3.81271
rfemur 0 0 0
rtibia 0
rfoot 0 0
rtoes 0
lfemur -7.10375 -7.96494 -8.10022
ltibia 22.4079
lfoot -19.5203 11.3333
ltoes -57.6139
162
root -1.33727 18.7069 5.68021 1.11489 4.13131 -3.70198
lowerback 6.77691 1.87341 1.37246
upperback -1.74899 2.6459 0.403353
thorax -5.57842 1.26713 -0.653631
lowerneck -6.91085 -5.56335 -3.19885
upperneck 13.9647 -8.17005 6.85837
head 5.76877 -3.6788 2.08182
rclavicle -1.18401e-014 -2.38542e-015
rhumerus -12.9101 28.4338 -58.4047
rradius 116.006
rwrist -64.6353
rhand 11.056 -49.8294
rfingers 7.12502
rthumb 36.1272 -76.1146
lclavicle -1.18401e-014 -2.38542e-015
lhumerus -43.3043 0.431533 87.9218
lradius 41.9486
lwrist -6.47008
lhand -9.31904 -25.3876
lfingers 7.12502
lthumb 16.6393 3.91912
rfemur 0 0 0
rtibia 0
rfoot 0 0
rtoes 0
lfemur -7.07009 -7.9442 -7.93489
ltibia 22.4174
lfoot -19.5192 11.3296
ltoes -57.6746
163
root -1.3506 18.7059 5.67531 1.07315 4.07145 -3.8335
lowerback 6.9902 1.8888 1.36974
upperback -1.76605 2.67484 0.482176
thorax -5.72127 1.28118 -0.582093
lowerneck -6.73951 -5.56014 -3.09538
upperneck 13.7148 -8.16094 6.8422
head 5.65593 -3.67971 2.06763
rclavicle -2.52953e-014 -5.1684e-015
rhumerus -12.5327 28.6349 -57.5523
rradius 116.685
rwrist -65.2154
rhand 11.2935 -49.8418
rfingers 7.12502
rthumb 36.3521 -76.0711
lclavicle -2.52953e-014 -5.1684e-015
lhumerus -43.4194 0.415229 87.9074
lradius 42.1295
lwrist -6.3365
lhand -9.29933 -25.3412
lfingers 7.12502
lthumb 16.6583 3.96401
rfemur 0 0 0
rtibia 0
rfoot 0 0
rtoes 0
lfemur -7.05958 -7.89811 -7.74536
ltibia 22.4413
lfoot -19.5011 11.3887
ltoes -57.7761
